<svg width="30" height="30" viewBox="0 0 30 30" fill="none" xmlns="http://www.w3.org/2000/svg">
<path d="M29.9999 16.9692C28.8733 16.6142 26.7983 14.1667 24.9999 14.1667C22.4999 14.1667 22.4999 8.33333 21.6666 6.66667C20.8333 5 19.1666 3.33333 19.1666 2.5C19.1666 1.66667 16.6666 0.833334 12.4999 2.5C8.33326 4.16667 5.83326 4.16667 4.16659 4.16667C2.49993 4.16667 1.66659 5.83333 0.833261 7.5C-7.23302e-05 9.16667 0.833261 9.16667 0.833261 9.16667C1.66659 10 2.49993 7.5 4.16659 6.66667C5.83326 5.83333 6.66659 7.5 8.33326 6.66667C9.57743 6.04417 12.2149 6.81583 14.1666 6.55333C14.8283 6.46417 15.4108 6.25583 15.8333 5.83333C15.8333 5.83333 15.8333 12.5 17.4999 15C17.4999 15 16.6666 15.8333 15.8333 18.3333C14.9999 20.8333 14.1666 18.3333 14.1666 16.6667C14.1666 15 13.3333 12.5 9.99993 10.8333C8.50909 10.0883 5.28493 10.2642 4.16659 12.5C2.49993 15.8333 4.16659 19.1667 5.83326 20C7.49993 20.8333 8.33326 21.6667 11.6666 21.6667C13.2858 21.6667 26.5099 22.0667 29.9999 21.97V16.9692Z" fill="#FFDC5D"/>
<path d="M6.81834 13.6708C8.64001 12.0533 11.5125 12.2642 13.5058 14.0642C12.9083 12.92 11.8342 11.7508 10 10.8333C8.50917 10.0883 5.28501 10.2642 4.16667 12.5C2.50001 15.8333 4.16667 19.1667 5.83334 20C6.03251 20.0992 6.21917 20.1992 6.40084 20.2967C4.88917 18.1125 5.01334 15.2758 6.81834 13.6708Z" fill="#4289C1"/>
<path d="M9.99991 15.4167C9.91757 15.4166 9.83707 15.3922 9.76859 15.3465C9.70011 15.3008 9.64672 15.2358 9.61516 15.1597C9.58359 15.0837 9.57527 15 9.59125 14.9192C9.60722 14.8384 9.64678 14.7642 9.70491 14.7058C10.6499 13.7608 11.6257 13.75 11.6666 13.75C11.7771 13.75 11.8831 13.7939 11.9612 13.872C12.0393 13.9502 12.0832 14.0562 12.0832 14.1667C12.0832 14.2772 12.0393 14.3832 11.9612 14.4613C11.8831 14.5394 11.7771 14.5833 11.6666 14.5833C11.6432 14.5833 10.9824 14.6067 10.2949 15.295C10.2165 15.3729 10.1105 15.4167 9.99991 15.4167ZM6.66658 17.9167C6.58423 17.9166 6.50374 17.8922 6.43526 17.8465C6.36678 17.8008 6.31339 17.7358 6.28182 17.6597C6.25026 17.5837 6.24194 17.5 6.25792 17.4192C6.27389 17.3384 6.31344 17.2642 6.37158 17.2058C7.31658 16.2608 8.29241 16.25 8.33325 16.25C8.44375 16.25 8.54973 16.2939 8.62787 16.372C8.70601 16.4502 8.74991 16.5562 8.74991 16.6667C8.74991 16.7772 8.70601 16.8832 8.62787 16.9613C8.54973 17.0394 8.44375 17.0833 8.33325 17.0833C8.30991 17.0842 7.64908 17.1067 6.96158 17.795C6.88318 17.8729 6.77712 17.9167 6.66658 17.9167Z" fill="#EF9645"/>
<path d="M0 20H30V30H0V20Z" fill="#55ACEE"/>
<path d="M5 20C7.5 18.3333 10.8333 15.8333 10 17.5C9.16667 19.1667 9.16583 20 10.8333 19.1667C12.5 18.3333 15 17.5 14.1667 19.1667C13.3333 20.8333 15.8333 20 16.6667 19.1667C17.5 18.3333 20 19.1667 19.1667 20C18.3333 20.8333 11.6667 21.6667 9.16667 21.6667C6.66667 21.6667 5 20 5 20Z" fill="#55ACEE"/>
</svg>
